<?xml version="1.0" encoding="UTF-8" standalone="no"?>
<svg width="64" height="64" viewBox="0 0 64 64" fill="none" xmlns="http://www.w3.org/2000/svg">
  <!-- Main circle background -->
  <circle cx="32" cy="32" r="30" fill="#014361"/>
  
  <!-- Simplified chart lines suggesting growth -->
  <path d="M10 40 L20 35 L30 38 L40 25 L54 16" stroke="white" stroke-width="3" stroke-linecap="round"/>
  
  <!-- Smaller circles representing the 3-fund portfolio -->
  <circle cx="20" cy="35" r="4" fill="#33A1DE"/>
  <circle cx="30" cy="38" r="4" fill="#F5A623"/>
  <circle cx="40" cy="25" r="4" fill="#7ED321"/>
  
  <!-- Subtle pie chart suggestion in the center -->
  <path d="M32 32 L32 12 A20 20 0 0 1 49.28 20.72 Z" fill="#33A1DE" opacity="0.8"/>
  <path d="M32 32 L49.28 20.72 A20 20 0 0 1 44 44 Z" fill="#F5A623" opacity="0.8"/>
  <path d="M32 32 L44 44 A20 20 0 0 1 20.72 49.28 A20 20 0 0 1 12 32 Z" fill="#7ED321" opacity="0.8"/>
</svg>