<?xml version="1.0" encoding="UTF-8"?>
<svg width="24px" height="24px" viewBox="0 0 24 24" version="1.1" xmlns="http://www.w3.org/2000/svg">
    <g stroke="none" stroke-width="1" fill="none" fill-rule="evenodd">
        <path d="M12,2 L12,22" stroke="#1E5631" stroke-width="2" stroke-linecap="round" stroke-linejoin="round"></path>
        <path d="M2,12 L22,12" stroke="#1E5631" stroke-width="2" stroke-linecap="round" stroke-linejoin="round"></path>
        <path d="M12,2 C13.5,3.5 16,6 20,8 C16,10 13.5,12.5 12,14" stroke="#1E5631" stroke-width="2" stroke-linecap="round" stroke-linejoin="round"></path>
        <path d="M12,2 C10.5,3.5 8,6 4,8 C8,10 10.5,12.5 12,14" stroke="#1E5631" stroke-width="2" stroke-linecap="round" stroke-linejoin="round"></path>
        <path d="M12,22 C13.5,20.5 16,18 20,16 C16,14 13.5,11.5 12,10" stroke="#1E5631" stroke-width="2" stroke-linecap="round" stroke-linejoin="round"></path>
        <path d="M12,22 C10.5,20.5 8,18 4,16 C8,14 10.5,11.5 12,10" stroke="#1E5631" stroke-width="2" stroke-linecap="round" stroke-linejoin="round"></path>
    </g>
</svg>