<?xml version="1.0" encoding="UTF-8"?>
<svg width="24px" height="24px" viewBox="0 0 24 24" version="1.1" xmlns="http://www.w3.org/2000/svg">
    <g stroke="none" stroke-width="1" fill="none" fill-rule="evenodd">
        <path d="M12,2 C17.52,2 22,6.48 22,12 C22,17.52 17.52,22 12,22 C6.48,22 2,17.52 2,12 C2,6.48 6.48,2 12,2 Z M12,4 C7.584,4 4,7.584 4,12 C4,16.416 7.584,20 12,20 C16.416,20 20,16.416 20,12 C20,7.584 16.416,4 12,4 Z" fill="#1E5631" fill-rule="nonzero"></path>
        <path d="M12,12 L12,5 C12,4.448 12.448,4 13,4 C13.552,4 14,4.448 14,5 L14,12 L18,12 C18.552,12 19,12.448 19,13 C19,13.552 18.552,14 18,14 L12,14 C11.448,14 11,13.552 11,13 L11,12 L12,12 Z" fill="#1E5631" fill-rule="nonzero" transform="translate(15.000000, 9.000000) rotate(-45.000000) translate(-15.000000, -9.000000)"></path>
    </g>
</svg>